<svg enable-background="new 0 0 45 45" viewBox="0 0 45 45" xmlns="http://www.w3.org/2000/svg" xmlns:xlink="http://www.w3.org/1999/xlink"><clipPath id="a"><path d="m0 36h36v-36h-36z"/></clipPath><g clip-path="url(#a)" transform="matrix(1.25 0 0 -1.25 0 45)"><path d="m0 0v-12.375c0-2.042 1.093-2.484 1.093-2.484s9.752-7.667 11.574-9.099c1.821-1.432 1.333 1.583 1.333 1.583v11.375z" fill="#662113" transform="translate(4 25)"/><path d="m0 0v-12.375c0-2.042-1.063-2.484-1.063-2.484s-9.767-7.667-11.588-9.099c-1.823-1.432-1.349 1.583-1.349 1.583v11.375z" fill="#c1694f" transform="translate(32 25)"/><path d="m0 0c-.754.61-1.988.61-2.742 0l-11.982-9.529c-.754-.61-.754-1.607 0-2.216l12.023-9.647c.755-.609 1.989-.609 2.743 0l12.103 9.731c.754.609.754 1.606 0 2.216z" fill="#d99e82" transform="translate(19.289 35.5)"/><path d="m0 0c-.552 0-1 .482-1 1.078v12.927c0 .596.448 1.078 1 1.078.553 0 1-.482 1-1.078v-12.927c0-.596-.447-1.078-1-1.078" fill="#d99e82" transform="translate(18 .25)"/><path d="m0 0c0-1.104.105-1.646-1-2.442l-2.469-1.878c-1.104-.797-1.531-.113-1.531.992v2.961c0 .193-.026.4-.278.608-2.578 2.125-12.588 10.076-14.412 11.544l4.625 3.678c1.266-.926 10.753-8.252 14.721-11.377.199-.156.344-.328.344-.516z" fill="#99aab5" transform="translate(28 17.164)"/><path d="m0 0c-3.969 3.125-13.456 10.451-14.722 11.377l-1.72-1.368-2.905-2.31c1.825-1.468 11.834-9.419 14.412-11.544.152-.125.217-.25.248-.371l4.934 3.967c-.06.086-.146.17-.247.249" fill="#ccd6dd" transform="translate(27.656 21.25)"/><path d="m0 0v3.57c0 .188-.145.36-.344.516-3.968 3.125-13.455 10.451-14.721 11.377l-2.074-1.649c3.393-2.669 12.482-9.681 14.861-11.573.256-.204.278-.415.278-.608v-4.836l1 .761c1.105.796 1 1.338 1 2.442" fill="#ccd6dd" transform="translate(28 17.164)"/><path d="m0 0c-3.969 3.125-13.456 10.451-14.722 11.377l-2.073-1.649c3.393-2.669 12.482-9.681 14.86-11.573.038-.029.06-.059.087-.089l2.095 1.685c-.06.086-.146.17-.247.249" fill="#e1e8ed" transform="translate(27.656 21.25)"/></g></svg>